<?xml version="1.0" encoding="UTF-8"?>
<svg id="_レイヤー_2" data-name="レイヤー 2" xmlns="http://www.w3.org/2000/svg" viewBox="0 0 360.31 55.03">
  <defs>
    <style>
      .cls-1 {
        fill: #231815;
      }

      .cls-2 {
        fill-rule: evenodd;
      }

      .cls-3 {
        fill: #fff;
      }
    </style>
  </defs>
  <g id="_レイヤー_1-2" data-name="レイヤー 1">
    <g>
      <g>
        <path class="cls-2" d="M16.18.97c.16.57-.16.58-.5.61-.94.07-1.89.07-2.8.25-.54.11-1.15.4-1.5.8-.57.65-.32,1.44.14,2.07,1.32,1.83,2.68,3.63,4.05,5.43.72.95,1.49,1.87,2.22,2.82.26.34.48.37.74.05,1.84-2.25,3.71-4.47,5.5-6.75.59-.75.99-1.64.85-2.69-.15-1.12-.8-1.86-1.92-1.97-.76-.08-1.53-.02-2.3-.07-.21-.01-.4-.19-.6-.29.21-.12.41-.34.62-.34,3.6-.03,7.2-.03,10.8-.04.45,0,.91-.02,1.35.01.15.01.28.17.43.26-.13.12-.25.33-.41.36-.95.22-1.94.31-2.86.62-1.87.65-3.19,2.03-4.42,3.51-1.87,2.25-3.75,4.5-5.64,6.73-.78.92-1.27,1.88-1.21,3.14.09,2.12.04,4.25.08,6.37.01.52.13,1.05.25,1.56.24.99,1,1.47,1.9,1.61,1.26.2,2.53.25,3.8.37.16.01.33-.02.47.04.09.04.13.2.19.3-.14.08-.27.22-.41.22-1.22.02-2.44.02-3.66.02-4.03,0-8.06.01-12.09.02-.68,0-1.36,0-2.04,0-.03-.06-.06-.13-.09-.19.16-.1.32-.27.48-.27.84-.04,1.7.03,2.53-.05,2.29-.22,3.5-1.14,3.73-3.19.06-.51.12-1.02.11-1.53-.05-1.84-.11-3.68-.2-5.52-.05-1.06-.84-1.76-1.43-2.51-1.94-2.47-3.93-4.9-5.95-7.3-.79-.95-1.69-1.82-2.59-2.66-.84-.78-1.92-1.01-3.04-1.13C.48,1.63,0,1.46,0,1.37c.01-.52.48-.34.76-.34,4.31-.03,8.61-.04,12.92-.05.82,0,1.64,0,2.49,0Z"/>
        <path class="cls-2" d="M51.56,0c.5.88.94,1.62,1.33,2.39,1.75,3.41,3.49,6.82,5.24,10.23,1.55,3.01,3.11,6.02,4.67,9.03,1.07,2.07,2.68,3.28,5.1,3.21.23,0,.59-.08.52.31-.02.14-.34.32-.53.32-2.27.04-4.55.04-6.82.06-2.64.02-5.28.04-7.92.07-.06,0-.12.01-.17,0-.2-.08-.4-.18-.59-.27.19-.1.37-.25.57-.28,1.05-.12,2.11-.14,3.15-.33,1.29-.24,1.9-1.37,1.39-2.58-.55-1.31-1.21-2.58-1.86-3.84-.1-.19-.41-.37-.62-.37-3.06,0-6.13.01-9.19.03-.65,0-1.31,0-1.96.06-.23.03-.55.22-.64.42-.54,1.2-.93,2.45-.95,3.78-.02,1.18.63,2.1,1.73,2.53,1.05.41,2.15.4,3.24.43.17,0,.35-.03.52.01.14.03.27.14.4.21-.13.08-.25.22-.38.22-.79.02-1.58.01-2.37.02-3.26.03-6.51.06-9.77.08-.53,0-1.07-.04-1.6-.07-.02-.05-.04-.11-.06-.16.13-.09.25-.24.38-.25,3.05-.16,5.04-2.03,6.57-4.37,1.25-1.9,2.26-3.98,3.31-6,1.08-2.08,2.1-4.2,3.12-6.31,1.23-2.54,2.45-5.1,3.67-7.64.13-.27.3-.53.52-.94ZM43.73,17.24c.43.03.69.07.95.07,3.16-.02,6.32-.05,9.48-.07.87,0,.89-.03.55-.82-.03-.07-.06-.14-.1-.21-1.4-2.78-2.79-5.57-4.2-8.35-.32-.63-.68-1.23-1.03-1.84-.07,0-.15-.01-.22-.02-1.79,3.71-3.58,7.41-5.44,11.25Z"/>
        <path class="cls-2" d="M107.36,14.04c-1.34.08-2.65.11-3.94.25-1.63.18-2.74,1.33-2.75,2.97-.03,3.12.05,6.25.09,9.37,0,.16,0,.31,0,.48-.08,0-.14.03-.19,0-2.13-.96-4.33-.8-6.55-.38-2.85.54-5.71.81-8.6.3-4.26-.75-7.47-2.99-9.62-6.77-1.74-3.05-2-6.27-1.11-9.58.59-2.21,1.94-4.04,3.54-5.65,2.41-2.42,5.28-4,8.72-4.24,2.81-.2,5.51.31,7.89,1.97.48.34.91.46,1.47.07.97-.68,1.99-1.27,3-1.89.69-.43.83-.37.85.42.05,2.91.09,5.81.12,8.72,0,.17-.17.34-.25.51-.1-.1-.28-.19-.3-.3-.23-1.41-.96-2.58-1.8-3.69-1.92-2.54-4.33-4.38-7.52-5.01-2.13-.42-4.19-.16-6.17.73-1.39.63-2.22,1.79-2.87,3.12-.93,1.9-1.11,3.96-1.28,6.01-.27,3.13-.22,6.26.47,9.33.76,3.41,2.36,5.38,6.37,5.81,1.88.2,3.74.12,5.46-.72,2.85-1.39,4.19-3.74,4.12-6.88-.01-.76-.08-1.52-.23-2.26-.34-1.66-1.34-2.47-3.03-2.54-.8-.03-1.61-.01-2.41-.06-.19,0-.38-.17-.57-.25.18-.09.36-.27.55-.27,2-.03,4.01-.04,6.02-.05,3.29-.03,6.57-.06,9.86-.08.32,0,.81-.14.66.56Z"/>
        <path class="cls-2" d="M127.72,1.55c.16.57-.16.58-.5.6-.94.07-1.89.07-2.8.25-.54.11-1.15.4-1.5.8-.57.65-.32,1.44.14,2.07,1.32,1.83,2.68,3.63,4.05,5.43.72.95,1.49,1.87,2.22,2.82.26.34.48.37.74.05,1.84-2.25,3.71-4.47,5.5-6.75.59-.75.99-1.64.85-2.68-.15-1.12-.8-1.86-1.92-1.97-.76-.08-1.53-.02-2.3-.07-.21-.01-.4-.19-.6-.29.21-.12.42-.34.62-.34,3.6-.03,7.2-.03,10.8-.04.45,0,.9-.02,1.35.01.15.01.28.17.43.26-.13.12-.25.33-.41.36-.95.22-1.94.31-2.86.62-1.87.65-3.19,2.03-4.42,3.51-1.87,2.25-3.75,4.5-5.64,6.73-.78.91-1.27,1.88-1.21,3.14.09,2.12.04,4.25.08,6.37.01.52.13,1.05.25,1.56.24.99,1,1.47,1.9,1.61,1.26.2,2.53.25,3.8.36.16.01.33-.02.46.03.09.04.13.2.19.3-.14.08-.28.22-.41.22-1.22.02-2.44.02-3.66.02-4.03,0-8.06.01-12.09.02-.68,0-1.36,0-2.04,0-.03-.06-.06-.13-.09-.19.16-.09.32-.26.48-.27.84-.04,1.7.03,2.53-.05,2.29-.22,3.5-1.14,3.73-3.19.06-.51.12-1.02.11-1.53-.05-1.84-.11-3.68-.2-5.52-.05-1.06-.84-1.76-1.43-2.51-1.94-2.47-3.93-4.9-5.95-7.31-.79-.94-1.68-1.82-2.59-2.65-.84-.77-1.92-1.01-3.04-1.13-.27-.03-.75-.2-.75-.29.01-.52.48-.34.76-.34,4.31-.03,8.61-.04,12.92-.05.82,0,1.64,0,2.49,0Z"/>
        <path class="cls-2" d="M147.96,1.7c1.32,0,2.65,0,3.97,0,3.35-.03,6.71-.07,10.06-.09.83,0,1.65.01,2.48.05.18,0,.34.18.51.27-.16.09-.31.25-.48.27-.65.08-1.31.08-1.96.16-2.08.28-3.69,1.45-3.68,3.84.02,3.29.12,6.58.17,9.88.02,1.64.09,3.28.57,4.86.5,1.63,1.5,2.89,2.98,3.75,1.35.78,2.8,1.26,4.37,1.37,2.64.19,5.17-.11,7.41-1.62,1.34-.9,2.59-1.95,3.11-3.53.33-.99.53-2.06.56-3.1.07-3.16.05-6.32.01-9.48-.02-1.75-.49-3.37-1.7-4.73-1.05-1.18-2.35-1.52-3.85-1.43-.44.03-.89.02-1.33-.02-.16-.02-.31-.2-.46-.31.16-.1.31-.27.47-.28,1.93-.05,3.85-.07,5.78-.1,2.41-.03,4.81-.06,7.22-.1.15,0,.32-.04.46.01.16.06.3.2.45.3-.15.11-.29.31-.44.32-1.21.04-2.35.3-3.4.96-1.2.76-1.84,1.88-2.24,3.18-.46,1.5-.38,3.05-.4,4.59-.02,2.74,0,5.47-.13,8.2-.11,2.28-1.1,4.14-2.97,5.56-1.9,1.43-4.02,2.12-6.34,2.14-2.35.01-4.7-.02-7.04-.22-1.2-.1-2.41-.5-3.55-.95-2.53-.99-3.68-3-3.77-5.63-.1-3.06-.1-6.12-.16-9.19-.04-1.67-.15-3.35-.17-5.02-.02-1.5-.98-2.22-2.16-2.78-1.27-.6-2.62-.52-3.97-.47-.37.01-.56-.09-.4-.67Z"/>
        <g>
          <path class="cls-3" d="M208.41,15.4c-.06.02-.12.05-.18.07-.01.15-.04.3-.04.45,0,3.1,0,6.21.03,9.31,0,.29.1.81.21.82.42.06.87,0,1.28-.12.24-.07.42-.33.62-.5.61-.53,1.23-1.05,1.84-1.58.27-.24.52-.25.84-.07.52.29,1.06.53,1.59.81,2.58,1.34,5.35,1.94,8.24,1.87,1.5-.03,3-.19,4.47-.43,2.55-.42,4.72-1.52,6.35-3.63,1.72-2.24,1.3-5.99-1.18-7.72-1.24-.87-2.68-1.6-4.13-2-3.46-.95-7-1.63-10.49-2.47-1.36-.33-2.73-.68-4.01-1.23-1.1-.47-1.94-1.36-2.04-2.66-.13-1.52.74-2.89,2.13-3.52,1.51-.68,3.11-.84,4.74-.82,3.27.02,6.37.64,9,2.73,2.06,1.64,3.8,3.52,4.02,6.34,0,.11.16.2.25.3.07-.14.19-.28.19-.42,0-2.87,0-5.74,0-8.62,0-.21-.11-.42-.18-.63-.26.09-.57.11-.77.27-.89.7-1.76,1.44-2.63,2.17-.3.25-.59.3-.93.04-.27-.21-.58-.37-.89-.53-3-1.59-6.19-2.29-9.58-2.04-1.48.11-2.94.34-4.3,1-1.78.86-3.28,1.99-3.87,3.97-.51,1.69-.38,3.34.82,4.73,1.18,1.37,2.74,2.19,4.46,2.63,2.29.58,4.62,1,6.93,1.54,1.96.46,3.94.9,5.86,1.5,1.25.39,2.44,1.03,3.16,2.2,1.48,2.38.17,5.43-2.64,6.23-2.37.66-4.76.83-7.2.49-3.8-.53-7.22-1.8-9.62-4.97-1.13-1.49-2.11-3.09-2.13-5.07,0-.14-.13-.27-.2-.41Z"/>
          <path class="cls-2" d="M208.41,15.4c.07.14.2.27.2.41.03,1.98,1,3.58,2.13,5.07,2.41,3.17,5.82,4.45,9.62,4.97,2.44.34,4.84.17,7.2-.49,2.81-.79,4.12-3.85,2.64-6.23-.73-1.17-1.91-1.82-3.16-2.2-1.92-.59-3.9-1.04-5.86-1.5-2.3-.54-4.63-.96-6.93-1.54-1.72-.43-3.28-1.25-4.46-2.63-1.2-1.4-1.33-3.04-.82-4.73.6-1.97,2.1-3.11,3.87-3.97,1.36-.66,2.82-.89,4.3-1,3.39-.24,6.58.45,9.58,2.04.3.16.62.32.89.53.34.27.63.22.93-.04.87-.73,1.74-1.46,2.63-2.17.2-.16.51-.18.77-.27.06.21.17.42.18.63.02,2.87.02,5.74,0,8.62,0,.14-.12.28-.19.42-.08-.1-.24-.19-.25-.3-.23-2.82-1.97-4.7-4.02-6.34-2.63-2.09-5.73-2.7-9-2.73-1.63-.01-3.23.15-4.74.82-1.4.63-2.26,1.99-2.13,3.52.11,1.3.95,2.19,2.04,2.66,1.28.55,2.65.9,4.01,1.23,3.49.84,7.03,1.53,10.49,2.47,1.45.4,2.89,1.13,4.13,2,2.48,1.73,2.9,5.48,1.18,7.72-1.63,2.12-3.8,3.21-6.35,3.63-1.48.24-2.98.4-4.47.43-2.89.07-5.66-.53-8.24-1.87-.53-.27-1.08-.51-1.59-.81-.32-.18-.56-.17-.84.07-.6.54-1.22,1.06-1.84,1.58-.21.18-.39.43-.62.5-.41.12-.86.17-1.28.12-.11-.01-.21-.53-.21-.82-.02-3.1-.02-6.21-.03-9.31,0-.15.02-.3.04-.45.06-.02.12-.04.18-.07Z"/>
        </g>
        <path class="cls-2" d="M280.14,26.18c-.84,0-1.7,0-2.56,0-5.09.04-10.18.07-15.27.12-.43,0-.76-.02-.52-.65.62,0,1.25.04,1.88,0,.86-.06,1.73-.13,2.58-.29,1.85-.33,2.65-1.32,2.64-3.19,0-1.77-.04-3.55-.05-5.32,0-.73-.02-1.46,0-2.19.02-.46-.18-.6-.61-.6-1.83.03-3.66.04-5.49.05-2.91.02-5.82.04-8.73.07-.98,0-1,0-.99.99.03,2.45.02,4.9.14,7.34.1,1.91,1.01,2.89,2.67,3.1.53.07,1.07.11,1.61.13.71.02,1.43,0,2.14.02.17,0,.34.14.5.22-.17.11-.34.31-.51.32-2.37.06-4.74.09-7.11.12-3.24.04-6.48.07-9.71.1-.12,0-.25.04-.34,0-.16-.07-.31-.19-.46-.29.16-.12.32-.33.48-.33.96-.04,1.93-.02,2.89-.03,1.02-.02,1.91-.33,2.63-1.12.58-.63.88-1.34.87-2.19-.05-5.28-.07-10.56-.15-15.84-.01-.76-.13-1.55-.38-2.26-.49-1.38-1.7-1.76-3.01-1.85-1.02-.07-2.04-.02-3.06-.01-.26,0-.56,0-.49-.36.03-.13.3-.3.46-.3,5.65-.06,11.29-.11,16.94-.15.08,0,.17-.03.23,0,.15.1.28.22.42.33-.13.09-.26.26-.4.27-.94.05-1.89.04-2.83.11-.93.07-1.84.21-2.59.85-.66.56-1,1.28-1,2.13.02,2.45.07,4.89.09,7.34,0,.52.19.69.72.68,4.76-.06,9.52-.09,14.28-.14.77,0,.78-.02.78-.79,0-2.18,0-4.36-.04-6.53-.01-.87-.12-1.73-.68-2.46-.8-1.05-1.96-1.14-3.12-1.18-.98-.03-1.97.02-2.95.05-.43.01-.62-.14-.42-.74,1.38,0,2.8.02,4.22,0,4.2-.07,8.4-.15,12.6-.22.4,0,.81-.01,1.21.03.15.02.28.16.42.25-.13.12-.26.34-.4.35-.88.07-1.78.03-2.65.13-.81.09-1.65.2-2.41.49-1.41.53-1.7,1.83-1.71,3.13-.02,3.12.02,6.24.06,9.36.03,2.41.03,4.81.13,7.22.1,2.46,1.57,3.14,3.7,3.12.98,0,1.97-.03,2.95-.06.43-.01.55.17.4.68Z"/>
        <path class="cls-2" d="M301.15.56c.5.88.94,1.62,1.33,2.39,1.76,3.41,3.49,6.82,5.24,10.23,1.55,3.01,3.11,6.02,4.67,9.03,1.07,2.07,2.68,3.28,5.1,3.21.23,0,.59-.08.52.31-.02.14-.34.32-.53.32-2.28.04-4.55.04-6.82.06-2.64.02-5.28.04-7.92.07-.06,0-.12.01-.17,0-.2-.08-.39-.18-.59-.27.19-.1.38-.25.58-.28,1.05-.12,2.11-.14,3.15-.33,1.29-.24,1.9-1.37,1.39-2.58-.55-1.31-1.21-2.58-1.86-3.84-.09-.19-.41-.37-.62-.37-3.06,0-6.13.01-9.19.03-.65,0-1.31,0-1.96.06-.23.03-.55.22-.64.42-.54,1.2-.93,2.45-.96,3.78-.02,1.18.63,2.1,1.74,2.53,1.05.41,2.14.4,3.24.43.17,0,.35-.03.52.01.14.03.26.14.4.21-.13.08-.26.22-.39.22-.79.02-1.58.01-2.37.02-3.26.03-6.51.06-9.77.08-.53,0-1.07-.04-1.6-.07-.02-.05-.04-.11-.06-.16.12-.09.25-.24.38-.25,3.05-.16,5.04-2.03,6.58-4.37,1.25-1.9,2.26-3.98,3.31-6,1.08-2.08,2.1-4.2,3.12-6.31,1.24-2.54,2.45-5.1,3.67-7.64.13-.27.3-.53.52-.94ZM293.32,17.8c.43.03.69.07.95.07,3.16-.02,6.32-.05,9.48-.07.87,0,.89-.03.55-.82-.03-.07-.06-.14-.1-.21-1.4-2.78-2.79-5.57-4.2-8.35-.32-.63-.68-1.23-1.03-1.84-.07,0-.15-.01-.22-.02-1.79,3.71-3.58,7.41-5.44,11.25Z"/>
        <path class="cls-2" d="M339.56,7.6c-2.72,6.61-5.44,13.22-8.23,20.01-.39-1.03-.73-1.9-1.06-2.77-2-5.27-3.99-10.55-5.99-15.82-.46-1.22-.94-2.44-1.4-3.66-.54-1.45-1.55-2.3-3.07-2.58-.18-.03-.33-.22-.5-.33.18-.09.35-.24.53-.25,3.87-.05,7.75-.08,11.62-.11.1,0,.21-.03.29,0,.13.07.23.2.34.3-.11.08-.22.2-.34.22-.46.07-.92.07-1.37.15-.84.16-1.58.51-2.08,1.23-.43.62-.45,1.29-.18,1.98.82,2.1,1.62,4.2,2.44,6.3.87,2.2,1.75,4.39,2.63,6.59.12.29.27.58.46.99.2-.31.34-.49.42-.69,1.52-3.68,3.06-7.35,4.52-11.06.32-.82.46-1.77.44-2.65-.06-1.74-1.14-2.68-2.98-2.81-.29-.02-.59.02-.87-.04-.16-.04-.29-.22-.43-.33.15-.07.31-.2.46-.21,2.81-.03,5.63-.05,8.44-.07,1.16,0,2.31-.02,3.47,0,.16,0,.32.16.48.24-.16.09-.31.25-.47.26-.9.04-1.75.16-2.49.75-.95.75-1.18,1.43-.75,2.58.97,2.61,1.96,5.22,2.96,7.82.72,1.89,1.46,3.77,2.2,5.65.07.17.17.33.31.59.14-.23.25-.36.31-.51,1.4-3.48,2.83-6.94,4.17-10.44.41-1.07.62-2.23.82-3.36.26-1.46-.7-2.73-2.17-2.94-.55-.08-1.11-.06-1.66-.14-.16-.02-.31-.19-.46-.29.14-.09.28-.25.42-.25,3.01-.04,6.01-.07,9.02-.08.18,0,.35.16.53.24-.09.1-.17.26-.29.29-2.34.64-3.72,2.32-4.66,4.41-.79,1.76-1.5,3.55-2.2,5.34-1.64,4.2-3.25,8.42-4.89,12.62-.31.8-.68,1.58-1.12,2.4-2.56-6.47-4.78-13.07-7.28-19.55-.1-.01-.2-.02-.31-.03Z"/>
      </g>
      <g>
        <path class="cls-1" d="M100.41,52.02h-1.03l-1.86-6.49-1.82,6.49h-1.03l-.97-8.48h-.24c-.16,0-.27-.03-.34-.09-.07-.06-.1-.14-.1-.24s.03-.18.1-.24c.07-.06.18-.09.34-.09h2.44c.16,0,.28.03.34.09.07.06.1.14.1.24s-.03.18-.1.24c-.07.06-.18.09-.34.09h-1.53l.87,7.73,1.77-6.37h1.01l1.82,6.37.85-7.73h-1.54c-.16,0-.27-.03-.34-.09-.07-.06-.1-.14-.1-.24s.03-.18.1-.24c.07-.06.18-.09.34-.09h2.42c.16,0,.28.03.34.09.07.06.1.14.1.24s-.03.18-.1.24c-.07.06-.18.09-.34.09h-.24l-.91,8.48Z"/>
        <path class="cls-1" d="M111.6,48.65c0,1-.36,1.85-1.07,2.56-.72.71-1.58,1.06-2.59,1.06s-1.89-.36-2.6-1.07c-.71-.71-1.07-1.56-1.07-2.56s.36-1.86,1.07-2.57c.71-.71,1.58-1.07,2.6-1.07s1.87.35,2.59,1.06c.72.71,1.07,1.57,1.07,2.57ZM110.94,48.65c0-.82-.29-1.52-.88-2.1-.59-.58-1.3-.87-2.13-.87s-1.54.29-2.13.87c-.59.58-.88,1.28-.88,2.1s.29,1.51.88,2.09c.59.58,1.3.88,2.13.88s1.54-.29,2.13-.87c.59-.58.88-1.28.88-2.1Z"/>
        <path class="cls-1" d="M116.06,45.25v1.66c.85-.77,1.49-1.27,1.92-1.49.42-.22.82-.33,1.18-.33.39,0,.75.13,1.09.39s.5.46.5.6c0,.1-.03.18-.1.25-.07.07-.15.1-.25.1-.05,0-.1,0-.13-.03-.04-.02-.1-.08-.2-.18-.18-.18-.34-.31-.48-.38-.14-.07-.27-.1-.4-.1-.29,0-.63.11-1.04.34-.4.23-1.1.79-2.1,1.68v3.59h2.91c.16,0,.28.03.34.09.07.06.1.14.1.24s-.03.17-.1.23c-.07.06-.18.09-.34.09h-5.15c-.16,0-.27-.03-.34-.09-.07-.06-.1-.14-.1-.23s.03-.16.1-.22c.06-.06.18-.09.34-.09h1.59v-5.47h-1.21c-.16,0-.27-.03-.34-.09-.07-.06-.1-.14-.1-.24s.03-.17.1-.23c.06-.06.18-.09.34-.09h1.87Z"/>
        <path class="cls-1" d="M124.35,49.1v2.92h-1.54c-.16,0-.27-.03-.34-.09-.07-.06-.1-.14-.1-.23,0-.1.03-.18.1-.24.07-.06.18-.09.34-.09h.88v-8.48h-.88c-.16,0-.27-.03-.34-.09-.07-.06-.1-.14-.1-.24s.03-.17.1-.23c.07-.06.18-.09.34-.09h1.54v6.05l2.79-2.34h-.34c-.16,0-.27-.03-.34-.09-.07-.06-.1-.14-.1-.23,0-.1.03-.18.1-.24.07-.06.18-.09.34-.09h2.1c.16,0,.28.03.34.09.07.06.1.14.1.24s-.03.17-.1.23c-.07.06-.18.09-.34.09h-.76l-2.56,2.14,3.24,3.3h.76c.16,0,.28.03.34.09.07.06.1.14.1.24s-.03.17-.1.23c-.07.06-.18.09-.34.09h-2.12c-.16,0-.27-.03-.34-.09-.07-.06-.1-.14-.1-.23,0-.1.03-.18.1-.24.07-.06.18-.09.34-.09h.46l-2.82-2.9-.75.63Z"/>
        <path class="cls-1" d="M137.52,45.68c0-.15.03-.26.09-.33.06-.07.14-.1.23-.1.1,0,.18.03.24.1.06.07.09.18.09.34v1.12c0,.16-.03.27-.09.34s-.14.1-.24.1c-.09,0-.16-.03-.22-.09-.06-.06-.1-.15-.11-.28-.03-.31-.19-.57-.48-.77-.43-.29-.99-.44-1.7-.44s-1.3.15-1.71.45c-.31.22-.46.47-.46.75,0,.31.18.57.55.78.25.15.72.26,1.42.34.91.1,1.54.21,1.9.34.5.18.88.43,1.13.76.25.32.37.67.37,1.05,0,.56-.27,1.05-.8,1.49-.54.43-1.32.65-2.36.65s-1.89-.26-2.55-.79c0,.18-.01.29-.03.34-.02.05-.06.1-.11.13-.05.04-.12.05-.18.05-.09,0-.17-.03-.23-.1-.06-.07-.09-.18-.09-.34v-1.35c0-.16.03-.27.09-.34.06-.07.14-.1.24-.1.09,0,.17.03.24.1.06.07.1.15.1.26,0,.24.06.44.18.6.18.25.47.46.87.62.4.16.89.25,1.46.25.85,0,1.49-.16,1.91-.48.42-.32.62-.65.62-1.01,0-.41-.21-.73-.63-.98-.43-.25-1.05-.41-1.86-.49-.82-.08-1.4-.19-1.75-.33-.35-.14-.63-.34-.83-.61-.2-.27-.3-.56-.3-.88,0-.56.28-1.01.83-1.34.55-.33,1.21-.5,1.98-.5.91,0,1.64.22,2.21.66Z"/>
        <path class="cls-1" d="M158.22,48.65c0,1-.36,1.85-1.07,2.56-.72.71-1.58,1.06-2.59,1.06s-1.89-.36-2.6-1.07c-.71-.71-1.07-1.56-1.07-2.56s.36-1.86,1.07-2.57c.71-.71,1.58-1.07,2.6-1.07s1.87.35,2.59,1.06c.72.71,1.07,1.57,1.07,2.57ZM157.56,48.65c0-.82-.29-1.52-.88-2.1-.59-.58-1.3-.87-2.13-.87s-1.54.29-2.13.87c-.59.58-.88,1.28-.88,2.1s.29,1.51.88,2.09c.59.58,1.3.88,2.13.88s1.54-.29,2.13-.87c.59-.58.88-1.28.88-2.1Z"/>
        <path class="cls-1" d="M162.86,45.92v5.45h2.88c.16,0,.27.03.34.09.07.06.1.14.1.24s-.03.17-.1.23c-.07.06-.18.09-.34.09h-5.13c-.16,0-.27-.03-.34-.09-.07-.06-.1-.14-.1-.23,0-.1.03-.18.1-.24.07-.06.18-.09.34-.09h1.59v-5.45h-1.42c-.16,0-.27-.03-.34-.09-.07-.06-.1-.14-.1-.24s.03-.17.1-.23c.07-.06.18-.09.34-.09h1.42v-.99c0-.55.22-1.03.67-1.44.45-.41,1.04-.61,1.78-.61.62,0,1.28.06,1.98.17.27.04.43.09.48.15s.08.13.08.23-.03.17-.09.23c-.06.06-.15.09-.25.09-.04,0-.11,0-.21-.02-.79-.12-1.45-.18-1.99-.18-.57,0-1.01.14-1.32.42-.31.28-.46.6-.46.96v.99h3.07c.16,0,.27.03.34.09.07.06.1.14.1.24s-.03.17-.1.23c-.07.06-.18.09-.34.09h-3.07Z"/>
        <path class="cls-1" d="M180.36,47.6v3.76h5.05v-1.94c0-.16.03-.27.09-.34.06-.07.14-.1.24-.1s.18.03.24.1c.06.07.09.18.09.34v2.59h-7.24c-.16,0-.27-.03-.34-.09-.07-.06-.1-.14-.1-.23,0-.1.03-.18.1-.24.07-.06.18-.09.34-.09h.88v-7.83h-.88c-.16,0-.27-.03-.34-.09-.07-.06-.1-.14-.1-.24s.03-.18.1-.24c.07-.06.18-.09.34-.09h6.9v2.26c0,.16-.03.27-.09.34-.06.07-.14.1-.24.1s-.18-.03-.24-.1c-.06-.07-.09-.18-.09-.34v-1.6h-4.7v3.41h2.35v-.74c0-.16.03-.27.09-.34.06-.07.14-.1.24-.1.09,0,.17.03.23.1.06.07.09.18.09.34v2.14c0,.16-.03.27-.09.34-.06.07-.14.1-.23.1-.1,0-.18-.03-.24-.1-.06-.07-.09-.18-.09-.34v-.74h-2.35Z"/>
        <path class="cls-1" d="M192.47,48.48l3.01,2.88c.2,0,.32,0,.37.03.05.02.1.06.14.11.04.06.06.12.06.19,0,.09-.04.17-.1.23-.07.06-.18.09-.34.09h-2.11c-.16,0-.28-.03-.34-.09-.07-.06-.1-.14-.1-.23,0-.1.03-.18.1-.24.07-.06.18-.09.34-.09h1.09l-2.55-2.45-2.54,2.45h1.09c.16,0,.27.03.34.09.07.06.1.14.1.24s-.04.17-.1.23c-.07.06-.18.09-.34.09h-2.13c-.16,0-.27-.03-.34-.09-.07-.06-.1-.14-.1-.23,0-.07.02-.13.06-.19s.08-.09.13-.11c.05-.02.17-.03.37-.03l3.01-2.88-2.67-2.56c-.19,0-.31-.01-.36-.03-.05-.02-.09-.06-.13-.12-.04-.06-.06-.12-.06-.19,0-.09.03-.17.1-.23.07-.06.18-.09.34-.09h1.79c.16,0,.27.03.34.09.06.06.1.14.1.24s-.03.17-.1.23c-.07.06-.18.09-.34.09h-.78l2.21,2.13,2.23-2.13h-.78c-.16,0-.27-.03-.34-.09s-.11-.14-.11-.24.03-.17.1-.23c.07-.06.18-.09.34-.09h1.79c.16,0,.27.03.34.09.07.06.1.14.1.24,0,.06-.02.12-.06.18-.04.06-.08.1-.13.12-.05.02-.17.03-.36.03l-2.68,2.56Z"/>
        <path class="cls-1" d="M199.52,45.25v1.2c.39-.47.81-.83,1.26-1.07.45-.24.98-.36,1.59-.36.65,0,1.24.15,1.79.45.55.3.97.72,1.27,1.26.3.54.45,1.11.45,1.7,0,.94-.34,1.75-1.01,2.42-.67.67-1.5,1-2.49,1-1.17,0-2.12-.48-2.85-1.43v3.95h1.59c.16,0,.27.03.34.09.07.06.1.14.1.24s-.03.17-.1.23c-.07.06-.18.09-.34.09h-3.13c-.16,0-.27-.03-.34-.09-.07-.06-.1-.14-.1-.24s.03-.18.1-.24c.07-.06.18-.09.34-.09h.88v-8.46h-.88c-.16,0-.27-.03-.34-.09-.07-.06-.1-.14-.1-.24s.03-.17.1-.23c.07-.06.18-.09.34-.09h1.54ZM205.21,48.43c0-.75-.28-1.4-.82-1.94-.55-.54-1.22-.81-2.01-.81s-1.47.27-2.02.81c-.55.54-.83,1.19-.83,1.94s.28,1.4.83,1.95c.55.54,1.23.81,2.02.81s1.46-.27,2.01-.81c.55-.54.83-1.19.83-1.95Z"/>
        <path class="cls-1" d="M210.17,45.25v1.66c.85-.77,1.49-1.27,1.92-1.49.42-.22.82-.33,1.18-.33.39,0,.75.13,1.09.39s.5.46.5.6c0,.1-.03.18-.1.25-.07.07-.15.1-.25.1-.05,0-.1,0-.13-.03-.04-.02-.1-.08-.2-.18-.18-.18-.34-.31-.48-.38-.14-.07-.27-.1-.4-.1-.29,0-.63.11-1.04.34-.4.23-1.1.79-2.1,1.68v3.59h2.91c.16,0,.28.03.34.09.07.06.1.14.1.24s-.03.17-.1.23c-.07.06-.18.09-.34.09h-5.15c-.16,0-.27-.03-.34-.09-.07-.06-.1-.14-.1-.23s.03-.16.1-.22c.06-.06.18-.09.34-.09h1.59v-5.47h-1.21c-.16,0-.27-.03-.34-.09-.07-.06-.1-.14-.1-.24s.03-.17.1-.23c.06-.06.18-.09.34-.09h1.87Z"/>
        <path class="cls-1" d="M223.94,48.79h-6.69c.12.85.47,1.53,1.07,2.05.6.52,1.33.78,2.21.78.49,0,1-.08,1.54-.24.54-.16.97-.38,1.31-.64.1-.08.19-.12.26-.12.08,0,.16.03.22.1s.09.14.09.23-.04.17-.12.26c-.25.26-.69.5-1.33.73-.64.23-1.29.34-1.96.34-1.12,0-2.06-.37-2.82-1.11-.75-.74-1.13-1.63-1.13-2.68,0-.95.35-1.77,1.06-2.45.71-.68,1.58-1.02,2.62-1.02s1.96.35,2.65,1.05c.69.7,1.03,1.61,1.02,2.72ZM223.28,48.13c-.13-.72-.47-1.31-1.03-1.77-.55-.45-1.21-.68-1.98-.68s-1.42.22-1.98.67c-.55.45-.9,1.04-1.03,1.77h6.02Z"/>
        <path class="cls-1" d="M231.83,45.68c0-.15.03-.26.09-.33.06-.07.14-.1.23-.1.1,0,.18.03.24.1.06.07.09.18.09.34v1.12c0,.16-.03.27-.09.34-.06.07-.14.1-.24.1-.09,0-.16-.03-.22-.09-.06-.06-.09-.15-.11-.28-.03-.31-.19-.57-.48-.77-.43-.29-.99-.44-1.7-.44s-1.3.15-1.71.45c-.31.22-.46.47-.46.75,0,.31.18.57.55.78.25.15.72.26,1.42.34.91.1,1.54.21,1.9.34.5.18.88.43,1.13.76.25.32.37.67.37,1.05,0,.56-.27,1.05-.8,1.49-.54.43-1.32.65-2.36.65s-1.89-.26-2.55-.79c0,.18-.01.29-.03.34s-.06.1-.11.13c-.05.04-.12.05-.18.05-.09,0-.17-.03-.23-.1-.06-.07-.09-.18-.09-.34v-1.35c0-.16.03-.27.09-.34.06-.07.14-.1.24-.1s.17.03.24.1c.07.07.1.15.1.26,0,.24.06.44.18.6.18.25.47.46.87.62.4.16.89.25,1.46.25.85,0,1.49-.16,1.91-.48s.62-.65.62-1.01c0-.41-.21-.73-.63-.98-.43-.25-1.05-.41-1.86-.49-.82-.08-1.4-.19-1.75-.33-.35-.14-.63-.34-.83-.61-.2-.27-.3-.56-.3-.88,0-.56.28-1.01.83-1.34.55-.33,1.21-.5,1.98-.5.91,0,1.64.22,2.21.66Z"/>
        <path class="cls-1" d="M241.03,45.68c0-.15.03-.26.09-.33.06-.07.14-.1.23-.1s.18.03.24.1c.06.07.09.18.09.34v1.12c0,.16-.03.27-.09.34s-.14.1-.24.1c-.09,0-.16-.03-.22-.09-.06-.06-.1-.15-.11-.28-.03-.31-.19-.57-.48-.77-.43-.29-.99-.44-1.7-.44s-1.3.15-1.71.45c-.31.22-.46.47-.46.75,0,.31.18.57.55.78.25.15.72.26,1.42.34.91.1,1.54.21,1.9.34.5.18.88.43,1.13.76.25.32.37.67.37,1.05,0,.56-.27,1.05-.8,1.49-.54.43-1.32.65-2.36.65s-1.89-.26-2.55-.79c0,.18-.01.29-.03.34-.02.05-.06.1-.11.13s-.12.05-.18.05c-.09,0-.17-.03-.23-.1-.06-.07-.09-.18-.09-.34v-1.35c0-.16.03-.27.09-.34.06-.07.14-.1.24-.1.09,0,.17.03.24.1.06.07.1.15.1.26,0,.24.06.44.18.6.18.25.47.46.87.62.4.16.89.25,1.46.25.85,0,1.49-.16,1.91-.48.42-.32.62-.65.62-1.01,0-.41-.21-.73-.63-.98-.43-.25-1.05-.41-1.86-.49-.82-.08-1.4-.19-1.75-.33-.36-.14-.63-.34-.83-.61-.2-.27-.3-.56-.3-.88,0-.56.28-1.01.83-1.34.55-.33,1.21-.5,1.98-.5.91,0,1.64.22,2.21.66Z"/>
        <path class="cls-1" d="M248.15,45.25v6.11h2.58c.16,0,.28.03.34.09.07.06.1.14.1.24s-.03.17-.1.23c-.07.06-.18.09-.34.09h-5.81c-.16,0-.27-.03-.34-.09-.07-.06-.1-.14-.1-.23,0-.1.03-.18.1-.24.07-.06.18-.09.34-.09h2.58v-5.45h-1.91c-.16,0-.27-.03-.34-.09-.07-.06-.11-.14-.11-.23,0-.1.03-.18.1-.24.07-.06.18-.09.34-.09h2.57ZM248.13,41.89v1.7h-.97v-1.7h.97Z"/>
        <path class="cls-1" d="M260.34,48.65c0,1-.36,1.85-1.07,2.56s-1.58,1.06-2.59,1.06-1.89-.36-2.6-1.07-1.07-1.56-1.07-2.56.36-1.86,1.07-2.57,1.58-1.07,2.6-1.07,1.87.35,2.59,1.06,1.07,1.57,1.07,2.57ZM259.68,48.65c0-.82-.29-1.52-.88-2.1-.59-.58-1.3-.87-2.13-.87s-1.54.29-2.13.87c-.59.58-.88,1.28-.88,2.1s.29,1.51.88,2.09c.59.58,1.3.88,2.13.88s1.54-.29,2.13-.87c.59-.58.88-1.28.88-2.1Z"/>
        <path class="cls-1" d="M263.97,45.25v.99c.46-.46.87-.78,1.24-.96.37-.18.79-.27,1.25-.27.5,0,.96.11,1.37.32.29.16.56.42.79.78s.36.73.36,1.11v4.13h.55c.16,0,.27.03.34.09.07.06.1.14.1.24s-.03.17-.1.23c-.07.06-.18.09-.34.09h-1.76c-.16,0-.28-.03-.34-.09-.07-.06-.1-.14-.1-.23,0-.1.03-.18.1-.24.07-.06.18-.09.34-.09h.55v-4.02c0-.46-.17-.86-.51-1.18-.34-.32-.79-.48-1.36-.48-.43,0-.81.09-1.12.26s-.77.61-1.36,1.3v4.12h.74c.16,0,.27.03.34.09.07.06.1.14.1.24s-.03.17-.1.23c-.07.06-.18.09-.34.09h-2.14c-.16,0-.27-.03-.34-.09-.07-.06-.1-.14-.1-.23,0-.1.03-.18.1-.24.07-.06.18-.09.34-.09h.74v-5.45h-.55c-.16,0-.27-.03-.34-.09-.07-.06-.1-.14-.1-.24s.03-.17.1-.23c.07-.06.18-.09.34-.09h1.21Z"/>
      </g>
    </g>
  </g>
</svg>